:FULLY-SPECIFIED
:FORCE-ALL-JOINTS-BE-3DOF
:DEGREES
204
root 4.85111 15.0446 -25.4619 7.09009 -1.54519 5.71657
lfemur 7.76406 -1.39118 0.573735
ltibia 5.57065 0 0
lfoot -35.7278 -11.4336 0
ltoes 46.8105 0 0
rfemur -32.1384 -20.3056 -8.60799
rtibia 52.1181 0 0
rfoot -25.3059 18.2 0
rtoes 60.0381 0 0
lowerback -2.90455 -1.51708 -0.556499
upperback -0.660707 -1.94916 -7.74184
thorax 0.716448 -0.986424 -7.82981
lowerneck -11.3959 0.271512 6.89012
upperneck 3.8535 -0.817442 2.49685
head 3.27265 -0.179248 -0.447003
lclavicle -8.56745e-015 -6.22341e-014 0
lhumerus -59.1912 -47.2328 116.35
lradius 53.7679 0 0
lwrist 25.1545 0 0
lhand 41.4313 29.8763 0
lfingers 7.12502 0 0
lthumb 63.6488 39.8063 0
rclavicle -8.56745e-015 -6.22341e-014 0
rhumerus -2.86717 -26.9254 -14.6813
rradius 54.4541 0 0
rwrist -22.5082 0 0
rhand -38.4112 -59.7982 0
rfingers 7.12502 0 0
rthumb -11.4358 -441.943 0
205
root 4.84245 15.0387 -25.461 7.1513 -1.63827 5.67436
lfemur 7.77889 -1.60675 0.714814
ltibia 5.51111 0 0
lfoot -35.9875 -11.6775 0
ltoes 46.903 0 0
rfemur -31.9995 -20.2442 -8.55363
rtibia 51.6104 0 0
rfoot -25.9519 18.3723 0
rtoes 60.1625 0 0
lowerback -2.94385 -1.45111 -0.508206
upperback -0.674744 -1.85914 -7.71701
thorax 0.722582 -0.941654 -7.836
lowerneck -11.4026 0.321785 6.95429
upperneck 3.86579 -0.755727 2.42882
head 3.2717 -0.149894 -0.476436
lclavicle -9.46402e-015 -6.22159e-014 0
lhumerus -59.3161 -47.154 116.433
lradius 53.8909 0 0
lwrist 25.2534 0 0
lhand 41.0767 29.7719 0
lfingers 7.12502 0 0
lthumb 63.321 39.8462 0
rclavicle -9.46402e-015 -6.22159e-014 0
rhumerus -2.53364 -26.8928 -14.2824
rradius 53.9227 0 0
rwrist -22.1642 0 0
rhand -38.3769 -60.0186 0
rfingers 7.12502 0 0
rthumb -11.4027 -445.621 0
206
root 4.83833 15.0352 -25.4604 7.21493 -1.61263 5.61233
lfemur 7.67108 -1.71991 0.80445
ltibia 5.56251 0 0
lfoot -36.1723 -11.8531 0
ltoes 46.9532 0 0
rfemur -31.8077 -20.1323 -8.48266
rtibia 51.1441 0 0
rfoot -26.5461 18.393 0
rtoes 60.2851 0 0
lowerback -2.9768 -1.39862 -0.460177
upperback -0.690901 -1.78726 -7.67034
thorax 0.723885 -0.905881 -7.81859
lowerneck -11.4038 0.350607 6.99238
upperneck 3.87329 -0.719088 2.3666
head 3.26906 -0.133286 -0.50078
lclavicle -1.02374e-014 -6.20208e-014 0
lhumerus -59.4198 -47.063 116.529
lradius 54.0214 0 0
lwrist 25.3219 0 0
lhand 40.6919 29.6464 0
lfingers 7.12502 0 0
lthumb 62.9662 39.8829 0
rclavicle -1.02374e-014 -6.20208e-014 0
rhumerus -2.33153 -26.8475 -14.0552
rradius 53.4839 0 0
rwrist -21.7815 0 0
rhand -38.3067 -60.1346 0
rfingers 7.12502 0 0
rthumb -11.335 -449.808 0
207
root 4.83837 15.0346 -25.4608 7.26861 -1.48006 5.51124
lfemur 7.43148 -1.72981 0.845358
ltibia 5.72624 0 0
lfoot -36.2865 -11.9589 0
ltoes 46.9553 0 0
rfemur -31.557 -19.9652 -8.39457
rtibia 50.6985 0 0
rfoot -27.1135 18.2627 0
rtoes 60.3966 0 0
lowerback -3.00263 -1.35684 -0.40906
upperback -0.710084 -1.72978 -7.59685
thorax 0.719016 -0.87723 -7.77445
lowerneck -11.4019 0.361098 7.00689
upperneck 3.87544 -0.703274 2.30582
head 3.26441 -0.127399 -0.521703
lclavicle -1.09369e-014 -6.16326e-014 0
lhumerus -59.5054 -46.9474 116.64
lradius 54.1625 0 0
lwrist 25.3605 0 0
lhand 40.2546 29.491 0
lfingers 7.12502 0 0
lthumb 62.5637 39.9169 0
rclavicle -1.09369e-014 -6.16326e-014 0
rhumerus -2.25085 -26.7922 -13.9851
rradius 53.1205 0 0
rwrist -21.3444 0 0
rhand -38.1862 -60.1487 0
rfingers 7.12502 0 0
rthumb -11.2186 -454.526 0
208
root 4.84201 15.0372 -25.4626 7.30083 -1.25852 5.3548
lfemur 7.05927 -1.64226 0.843075
ltibia 5.99697 0 0
lfoot -36.3386 -11.998 0
ltoes 46.9067 0 0
rfemur -31.2459 -19.7414 -8.28952
rtibia 50.2514 0 0
rfoot -27.6802 17.9917 0
rtoes 60.4876 0 0
lowerback -3.02076 -1.32234 -0.351783
upperback -0.732889 -1.68207 -7.49323
thorax 0.707009 -0.853391 -7.70201
lowerneck -11.3995 0.357435 7.00169
upperneck 3.87199 -0.70284 2.24204
head 3.25755 -0.129594 -0.541063
lclavicle -1.16172e-014 -6.10465e-014 0
lhumerus -59.5766 -46.7958 116.768
lradius 54.3167 0 0
lwrist 25.3712 0 0
lhand 39.7455 29.2986 0
lfingers 7.12502 0 0
lthumb 62.0956 39.9488 0
rclavicle -1.16172e-014 -6.10465e-014 0
rhumerus -2.27464 -26.7296 -14.0482
rradius 52.8104 0 0
rwrist -20.8402 0 0
rhand -38.0035 -60.0693 0
rfingers 7.12502 0 0
rthumb -11.0423 -459.762 0
209
root 4.84912 15.0428 -25.4659 7.31316 -0.951434 5.14667
lfemur 6.56114 -1.46206 0.799388
ltibia 6.36979 0 0
lfoot -36.3312 -11.974 0
ltoes 46.8101 0 0
rfemur -30.8778 -19.4639 -8.16806
rtibia 49.8034 0 0
rfoot -28.2451 17.5866 0
rtoes 60.5585 0 0
lowerback -3.03139 -1.29487 -0.288807
upperback -0.759028 -1.6438 -7.36103
thorax 0.688236 -0.834202 -7.60265
lowerneck -11.3966 0.340126 6.97756
upperneck 3.8632 -0.717275 2.17555
head 3.24858 -0.139593 -0.558862
lclavicle -1.22782e-014 -6.02716e-014 0
lhumerus -59.634 -46.6103 116.911
lradius 54.4832 0 0
lwrist 25.3552 0 0
lhand 39.1683 29.0709 0
lfingers 7.12502 0 0
lthumb 61.5653 39.9785 0
rclavicle -1.22782e-014 -6.02716e-014 0
rhumerus -2.3987 -26.6595 -14.2392
rradius 52.5518 0 0
rwrist -20.2722 0 0
rhand -37.762 -59.9002 0
rfingers 7.12502 0 0
rthumb -10.8092 -465.488 0
210
root 4.8596 15.0512 -25.4704 7.30721 -0.562256 4.89047
lfemur 5.94375 -1.19398 0.716087
ltibia 6.83979 0 0
lfoot -36.267 -11.8904 0
ltoes 46.6681 0 0
rfemur -30.4564 -19.1354 -8.03071
rtibia 49.3553 0 0
rfoot -28.807 17.0542 0
rtoes 60.6102 0 0
lowerback -3.03472 -1.27418 -0.220597
upperback -0.78821 -1.61462 -7.20182
thorax 0.66307 -0.819501 -7.47774
lowerneck -11.3931 0.309676 6.93527
upperneck 3.84935 -0.746066 2.10667
head 3.23763 -0.157121 -0.575104
lclavicle -1.29197e-014 -5.93174e-014 0
lhumerus -59.6778 -46.3926 117.067
lradius 54.6614 0 0
lwrist 25.3138 0 0
lhand 38.5269 28.8099 0
lfingers 7.12502 0 0
lthumb 60.9764 40.0061 0
rclavicle -1.29197e-014 -5.93174e-014 0
rhumerus -2.61887 -26.5817 -14.5529
rradius 52.3426 0 0
rwrist -19.6438 0 0
rhand -37.4647 -59.6453 0
rfingers 7.12502 0 0
rthumb -10.5222 -471.677 0
211
root 4.87333 15.0623 -25.4762 7.28454 -0.0944209 4.58984
lfemur 5.21376 -0.842823 0.594959
ltibia 7.40209 0 0
lfoot -36.1487 -11.7509 0
ltoes 46.4834 0 0
rfemur -29.985 -18.7586 -7.878
rtibia 48.9076 0 0
rfoot -29.3647 16.4012 0
rtoes 60.6431 0 0
lowerback -3.03095 -1.26002 -0.147616
upperback -0.820146 -1.59422 -7.01716
thorax 0.631882 -0.809127 -7.32865
lowerneck -11.3888 0.266593 6.8756
upperneck 3.83071 -0.7887 2.0357
head 3.22479 -0.181901 -0.589792
lclavicle -1.35416e-014 -5.81931e-014 0
lhumerus -59.7084 -46.1446 117.236
lradius 54.8503 0 0
lwrist 25.2481 0 0
lhand 37.825 28.5174 0
lfingers 7.12502 0 0
lthumb 60.3325 40.0318 0
rclavicle -1.35416e-014 -5.81931e-014 0
rhumerus -2.93095 -26.4959 -14.9838
rradius 52.1808 0 0
rwrist -18.9584 0 0
rhand -37.1148 -59.3086 0
rfingers 7.12502 0 0
rthumb -10.1844 -478.302 0
